<svg width="36" height="36" viewBox="0 0 36 36" fill="none" xmlns="http://www.w3.org/2000/svg">
<path d="M26.8465 35.8208C29.1328 35.8208 31.1681 34.9554 32.9523 33.2247C34.7365 31.494 35.682 29.3679 35.7888 26.8465H34.3145C34.1649 28.8658 33.3877 30.5885 31.9827 32.0148C30.5778 33.4411 28.8658 34.2076 26.8465 34.3145V35.8208ZM0.211914 9.1542H1.68629C1.83584 7.13498 2.61308 5.41223 4.018 3.98596C5.42291 2.55968 7.13498 1.79312 9.15421 1.68629V0.211914C6.69696 0.318747 4.61897 1.22153 2.92025 2.92025C1.22153 4.61897 0.318747 6.69695 0.211914 9.1542ZM6.43946 30.3946C4.0869 28.042 2.91062 25.3561 2.91062 22.3369C2.91062 19.3177 4.0869 16.6211 6.43946 14.2472L12.6061 8.10291C13.0933 7.61575 13.6654 7.37216 14.3225 7.37216C14.9795 7.37216 15.5516 7.61575 16.0388 8.10291C16.2995 8.35719 16.4886 8.70441 16.6061 9.14458C16.7237 9.58475 16.7023 10.0303 16.542 10.4811L22.369 4.65421C22.8775 4.14565 23.4603 3.89672 24.1174 3.90741C24.7744 3.91811 25.3465 4.16704 25.8337 4.65421C26.1286 4.95548 26.3225 5.2995 26.4155 5.68625C26.5084 6.073 26.4972 6.45334 26.3818 6.82729L27.76 5.44908C28.2194 4.90422 28.8065 4.64568 29.5212 4.67346C30.236 4.70123 30.8476 4.96939 31.3562 5.47791C31.9331 6.05486 32.1542 6.71032 32.0196 7.44429C31.885 8.17826 31.4235 8.94802 30.635 9.75358C30.9641 9.64461 31.3166 9.63819 31.6927 9.73433C32.0688 9.8305 32.4256 10.0581 32.7632 10.417C33.2504 10.9042 33.494 11.4763 33.494 12.1334C33.494 12.7904 33.2504 13.3626 32.7632 13.8497L29.8946 16.7183C30.3241 16.5239 30.7573 16.448 31.1943 16.4907C31.6313 16.5335 32.0367 16.7418 32.4106 17.1157C32.8978 17.6029 33.143 18.1804 33.1462 18.8481C33.1494 19.5159 32.9042 20.0933 32.4106 20.5805L22.5869 30.3946C20.213 32.7472 17.5164 33.9235 14.4972 33.9235C11.4779 33.9235 8.79201 32.7472 6.43946 30.3946ZM7.35612 29.478C8.40315 30.525 9.53937 31.3139 10.7648 31.8449C11.9902 32.3759 13.2397 32.6414 14.5132 32.6414C15.7867 32.6414 17.0362 32.3759 18.2616 31.8449C19.487 31.3139 20.6232 30.525 21.6702 29.478L31.4843 19.6542C31.7343 19.4256 31.8593 19.1537 31.8593 18.8385C31.8593 18.5233 31.7343 18.2546 31.4843 18.0324C31.2557 17.7824 30.9854 17.6574 30.6735 17.6574C30.3615 17.6574 30.0912 17.7824 29.8625 18.0324L23.9875 23.8754L22.4202 22.3818L31.8369 12.9651C32.0869 12.7365 32.2119 12.4646 32.2119 12.1494C32.2119 11.8342 32.0869 11.5623 31.8369 11.3337C31.6083 11.0837 31.338 10.9587 31.026 10.9587C30.7141 10.9587 30.4438 11.0837 30.2151 11.3337L21.9651 19.5837L20.4715 18.026L30.4395 8.01641C30.6895 7.78778 30.8075 7.51587 30.7936 7.20071C30.7797 6.88551 30.6617 6.6168 30.4395 6.39458C30.2108 6.14458 29.9406 6.01958 29.6286 6.01958C29.3166 6.01958 29.0463 6.14458 28.8177 6.39458L18.8081 16.3625L17.2504 14.869L24.9491 7.20229C25.1777 6.97365 25.2904 6.70175 25.2872 6.38658C25.284 6.07141 25.1713 5.80272 24.9491 5.5805C24.6991 5.3305 24.4165 5.2055 24.1013 5.2055C23.7862 5.2055 23.5143 5.3305 23.2856 5.5805L13.151 15.6831C13.7771 17.1275 14.0324 18.5944 13.917 20.0837C13.8017 21.573 13.2375 23.0399 12.2247 24.4843L10.8593 23.151C11.6414 21.8668 12.0378 20.5367 12.0485 19.1606C12.0591 17.7846 11.6093 16.4224 10.6991 15.0741L15.1222 10.619C15.3508 10.3903 15.4635 10.1184 15.4603 9.80325C15.4571 9.48808 15.3444 9.23007 15.1222 9.0292C14.8935 8.7792 14.6232 8.6542 14.3112 8.6542C13.9993 8.6542 13.729 8.7792 13.5004 9.0292L7.35612 15.1638C6.30912 16.2108 5.52012 17.3471 4.98912 18.5725C4.45815 19.7979 4.19266 21.0474 4.19266 22.3209C4.19266 23.5944 4.45815 24.8439 4.98912 26.0693C5.52012 27.2947 6.30912 28.4309 7.35612 29.478Z" fill="white"/>
</svg>
