<svg width="18" height="19" viewBox="0 0 18 19" fill="none" xmlns="http://www.w3.org/2000/svg">
<path d="M7.525 13.3769L13.9269 6.975L13.3346 6.38845L7.525 12.2173L4.60192 9.29422L4.0346 9.88078L7.525 13.3769ZM9.00335 18.5C7.76265 18.5 6.5977 18.2638 5.5085 17.7915C4.41928 17.3192 3.46527 16.674 2.64647 15.856C1.82769 15.0379 1.18192 14.0848 0.70915 12.9967C0.236383 11.9085 0 10.744 0 9.50335C0 8.2588 0.236158 7.08872 0.708475 5.9931C1.18081 4.89748 1.82599 3.94444 2.64403 3.13398C3.46206 2.32353 4.41517 1.68192 5.50335 1.20915C6.59153 0.736383 7.75597 0.5 8.99665 0.5C10.2412 0.5 11.4113 0.736158 12.5069 1.20848C13.6025 1.68081 14.5556 2.32182 15.366 3.13152C16.1765 3.94122 16.8181 4.89337 17.2908 5.98795C17.7636 7.08255 18 8.25212 18 9.49665C18 10.7374 17.7638 11.9023 17.2915 12.9915C16.8192 14.0807 16.1782 15.0347 15.3685 15.8535C14.5588 16.6723 13.6066 17.3181 12.512 17.7908C11.4174 18.2636 10.2479 18.5 9.00335 18.5Z" fill="black"/>
</svg>
