<svg width="27" height="35" viewBox="0 0 27 35" fill="none" xmlns="http://www.w3.org/2000/svg">
<g filter="url(#filter0_d_311_401)">
<path d="M13 33.7693C12.2282 33.7693 11.584 33.5462 11.0673 33.1C10.5506 32.6539 10.2949 32.0859 10.3 31.3962H8.83075C8.44678 31.3962 8.09438 31.2358 7.77355 30.915C7.45272 30.5941 7.2923 30.2417 7.2923 29.8577V23.8231C5.0923 22.5949 3.41025 20.9731 2.24615 18.9577C1.08205 16.9423 0.5 14.7897 0.5 12.5C0.5 9.00513 1.70962 6.04808 4.12885 3.62885C6.54808 1.20962 9.50513 0 13 0C16.4949 0 19.4519 1.20962 21.8711 3.62885C24.2904 6.04808 25.5 9.00513 25.5 12.5C25.5 14.7897 24.9203 16.9431 23.761 18.9602C22.6016 20.9772 20.9172 22.5981 18.7077 23.8231V29.8577C18.7077 30.2417 18.5473 30.5941 18.2264 30.915C17.9056 31.2358 17.5532 31.3962 17.1693 31.3962H15.7C15.7051 32.0859 15.4494 32.6539 14.9327 33.1C14.416 33.5462 13.7718 33.7693 13 33.7693ZM8.83075 29.8577H17.1693V27.7347H8.83075V29.8577ZM8.83075 26.1962H17.1693V24.1577H8.83075V26.1962ZM8.38075 22.6193H12.2731V15.6923L8.01925 11.4385L9.03075 10.4269L13 14.4346L16.9693 10.4269L17.9807 11.4385L13.727 15.6923V22.6193H17.6193C19.5167 21.7372 21.0481 20.3898 22.2134 18.577C23.3788 16.7641 23.9616 14.7386 23.9616 12.5003C23.9616 9.44625 22.8981 6.85578 20.7711 4.72885C18.6442 2.60192 16.0538 1.53845 13 1.53845C9.94617 1.53845 7.35578 2.60192 5.22885 4.72885C3.10192 6.85578 2.03845 9.44625 2.03845 12.5003C2.03845 14.7386 2.62115 16.7641 3.78655 18.577C4.95192 20.3898 6.48332 21.7372 8.38075 22.6193Z" fill="#F4D877"/>
</g>
<defs>
<filter id="filter0_d_311_401" x="0.5" y="0" width="26" height="34.7695" filterUnits="userSpaceOnUse" color-interpolation-filters="sRGB">
<feFlood flood-opacity="0" result="BackgroundImageFix"/>
<feColorMatrix in="SourceAlpha" type="matrix" values="0 0 0 0 0 0 0 0 0 0 0 0 0 0 0 0 0 0 127 0" result="hardAlpha"/>
<feOffset dx="1" dy="1"/>
<feComposite in2="hardAlpha" operator="out"/>
<feColorMatrix type="matrix" values="0 0 0 0 0.964706 0 0 0 0 0.960784 0 0 0 0 0.301961 0 0 0 0.4 0"/>
<feBlend mode="normal" in2="BackgroundImageFix" result="effect1_dropShadow_311_401"/>
<feBlend mode="normal" in="SourceGraphic" in2="effect1_dropShadow_311_401" result="shape"/>
</filter>
</defs>
</svg>
