<svg width="40" height="41" viewBox="0 0 40 41" fill="none" xmlns="http://www.w3.org/2000/svg">
<path fill-rule="evenodd" clip-rule="evenodd" d="M0.0308828 0.173828H39.6756C39.6926 0.173828 39.7064 0.188045 39.7064 0.205582V40.9685C39.7064 40.986 39.6926 41.0003 39.6756 41.0003H0.0308828C0.0138267 41.0003 0 40.986 0 40.9685V0.205582C0 0.188045 0.0138267 0.173828 0.0308828 0.173828ZM22.9725 34.1963L24.2101 25.9339C22.8794 26.6114 21.3756 26.9959 19.7875 26.9959C14.3402 26.9959 9.92647 22.5146 9.92647 16.985C9.92647 14.5223 10.8048 12.2656 12.2598 10.5216C13.2445 9.32687 14.5043 8.37476 15.9372 7.77053C17.1215 7.25786 18.4213 6.97863 19.7875 6.97863C25.2348 6.97863 29.7684 11.46 29.7684 16.985C29.8963 17.9886 28.9153 25.1372 28.1342 30.8283C27.9677 32.0418 27.8103 33.189 27.6746 34.1963H22.9725ZM21.1582 12.3388C20.7235 12.2061 20.2666 12.1374 19.7875 12.1374C17.1482 12.1374 15.01 14.3072 15.01 16.985C15.01 19.4797 16.8598 21.5304 19.2419 21.8051H19.2463H19.2552L19.3395 21.8142H19.3484L19.3528 21.8188H19.3617H19.3706H19.3794H19.3883H19.3972L19.4371 21.8234H19.446H19.4548H19.4637L19.5081 21.8279H19.5169H19.5214H19.5302L19.5569 21.8325H19.5657H19.5746L19.6589 21.8371H19.6633H19.6678H19.6766H19.7875C22.4269 21.8371 24.5695 19.6628 24.5695 16.985C24.5695 16.9672 24.5684 16.9494 24.5673 16.9311C24.5662 16.9117 24.565 16.8917 24.565 16.8705V16.8293L24.5606 16.7561V16.7103L24.5561 16.6371L24.5517 16.6005L24.5428 16.5089V16.486C24.5384 16.4448 24.534 16.4082 24.5295 16.3716L24.5251 16.3533L24.5118 16.2572L24.5074 16.2251L24.494 16.1473L24.4896 16.1107L24.4763 16.0329L24.4674 15.9962L24.4497 15.9093L24.4453 15.891L24.4408 15.8772C24.4364 15.8452 24.4275 15.8131 24.4186 15.7811L24.4098 15.7536L24.392 15.6804L24.3787 15.63L24.361 15.5705L24.3477 15.5293L24.3255 15.4515L24.3122 15.4241C24.3077 15.408 24.3022 15.392 24.2967 15.376C24.2911 15.36 24.2856 15.344 24.2811 15.3279L24.2767 15.3188L24.2678 15.2959L24.2412 15.2227L24.2235 15.1815L24.2013 15.122L24.1835 15.0762L24.1569 15.0212L24.1392 14.9755L24.1126 14.9205L24.0948 14.8839V14.8793C24.0815 14.8519 24.0682 14.8244 24.0549 14.7924H24.0505L24.0238 14.7329L24.0017 14.7008L23.975 14.6459L23.9529 14.6047L23.9218 14.5498L23.8996 14.5131L23.8686 14.4628V14.4582L23.8198 14.3758L23.7843 14.3255L23.7621 14.2889L23.7222 14.2339L23.7089 14.211L23.6645 14.1515L23.6512 14.1286C23.5802 14.0325 23.5093 13.941 23.4339 13.854L23.4206 13.8357L23.3762 13.7808L23.354 13.7579L23.3052 13.7029L23.2963 13.6938L23.2922 13.6892C23.2317 13.6223 23.1751 13.5597 23.11 13.5015L23.1012 13.4924L23.0435 13.4329L23.0346 13.4237C22.8971 13.3001 22.7552 13.1765 22.6043 13.0667L22.5955 13.0621C22.4713 12.9705 22.3426 12.8836 22.2095 12.8012H22.2051C21.8813 12.6089 21.5308 12.4533 21.1627 12.3388H21.1582Z" fill="white"/>
</svg>
