<svg width="142" height="64" viewBox="0 0 142 64" fill="none" xmlns="http://www.w3.org/2000/svg">
<path fill-rule="evenodd" clip-rule="evenodd" d="M68.834 0.949219V17.8599H73.6892V9.93608C73.6892 9.34804 73.682 8.88816 73.6607 8.56392C73.6394 8.23974 73.6039 7.93067 73.5541 7.62907C73.7176 8.17189 73.8811 8.65441 74.0446 9.07662C74.2081 9.49884 74.3574 9.82301 74.4924 10.0492L78.9709 17.8599H83.8544V0.949219H78.9709V8.92582C78.9709 9.43853 78.985 9.87577 79.0064 10.2377C79.0277 10.5996 79.0561 10.9238 79.0988 11.2254C78.9282 10.6523 78.7647 10.1623 78.6083 9.75516C78.4519 9.34804 78.3026 9.03896 78.1676 8.81276L73.6892 0.949219H68.834ZM90.0034 0.949219V17.8599H95.2139V0.949219H90.0034ZM101.363 0.949219V17.8599H106.225V9.93608C106.225 9.34804 106.211 8.88816 106.19 8.56392C106.168 8.23974 106.133 7.93067 106.083 7.62907C106.247 8.17189 106.41 8.65441 106.574 9.07662C106.737 9.49884 106.886 9.82301 107.028 10.0492L111.5 17.8599H116.383V0.949219H111.5V8.92582C111.5 9.43853 111.514 9.87577 111.535 10.2377C111.557 10.5996 111.585 10.9238 111.635 11.2254C111.457 10.6523 111.294 10.1623 111.137 9.75516C110.988 9.34804 110.839 9.03896 110.697 8.81276L106.225 0.949219H101.363ZM122.447 0.949219V17.8599H135.513V13.7435H127.572V11.1349H134.02V7.2521H127.572V4.9903H135.2V0.949219H122.447Z" fill="white"/>
<path fill-rule="evenodd" clip-rule="evenodd" d="M111.097 58.2919H106.109C106.258 60.1049 106.955 61.5059 108.191 62.5022C109.428 63.4986 111.105 64.0005 113.222 64.0005C115.525 64.0005 117.287 63.4986 118.516 62.5022C119.746 61.5059 120.364 60.0825 120.364 58.2245C120.364 57.3704 120.2 56.6213 119.873 55.9845C119.554 55.3552 119.035 54.7933 118.325 54.2989C117.756 53.8943 116.541 53.4449 114.686 52.9504C114.573 52.9216 114.468 52.8945 114.37 52.8694L114.344 52.8625C114.1 52.7995 113.907 52.7496 113.762 52.7182C113.712 52.7063 113.643 52.6851 113.557 52.6582L113.549 52.6557L113.486 52.6358C112.085 52.2612 111.382 51.7967 111.382 51.2423C111.382 50.8528 111.517 50.5606 111.78 50.3733C112.05 50.186 112.462 50.0886 113.009 50.0886C113.627 50.0886 114.11 50.2085 114.445 50.4557C114.779 50.6954 114.985 51.07 115.063 51.5645H119.923C119.767 49.8639 119.106 48.5603 117.926 47.6464C116.754 46.7324 115.141 46.2754 113.094 46.2754C111.005 46.2754 109.371 46.7549 108.177 47.7063C106.99 48.6577 106.393 49.9688 106.393 51.6394C106.393 52.4635 106.543 53.2051 106.855 53.8494C107.161 54.5012 107.623 55.0555 108.234 55.52C108.553 55.7448 109.058 55.992 109.755 56.2542C110.451 56.5164 111.389 56.8086 112.562 57.1307C112.711 57.1682 112.938 57.2281 113.222 57.303C114.658 57.6851 115.376 58.1721 115.376 58.7789C115.376 59.161 115.205 59.4606 114.864 59.6778C114.523 59.8951 114.047 60 113.457 60C112.739 60 112.199 59.8652 111.844 59.603C111.482 59.3407 111.232 58.8988 111.097 58.2919ZM68.7251 63.5286V46.7249H76.3494C78.7442 46.7249 80.4499 47.0995 81.4732 47.8561C82.4958 48.6053 83.0005 49.8414 83.0005 51.5645C83.0005 52.5833 82.7946 53.4374 82.3755 54.1191C81.9558 54.7933 81.3094 55.3327 80.4352 55.7298C81.3235 55.9245 81.9705 56.3142 82.3755 56.8985C82.7806 57.4754 82.9938 58.3294 83.0292 59.4531L83.1141 61.798C83.1141 61.8057 83.1161 61.8153 83.1181 61.825L83.1181 61.8251C83.1201 61.8342 83.1214 61.8432 83.1214 61.8505C83.1428 62.5247 83.2992 62.8693 83.5833 62.9068V63.5286H78.41C78.3104 63.124 78.2469 62.7719 78.1968 62.4722C78.1473 62.1726 78.1259 61.9403 78.1259 61.7755V60.0974C78.1259 59.2284 77.9628 58.6141 77.6353 58.2619C77.3159 57.9098 76.7544 57.7301 75.9517 57.7301H73.7774V63.5286H68.7251ZM88.387 63.5286V46.7249H101.128V50.7404H93.5102V52.9879H99.9554V56.8461H93.5102V59.4381H101.448V63.5286H88.387ZM76.1007 53.9468H73.7774V50.7928H75.9731C76.8754 50.7928 77.4796 50.9052 77.7917 51.1374C78.1046 51.3697 78.261 51.7817 78.261 52.381C78.261 52.9579 78.1046 53.3624 77.7917 53.5947C77.4796 53.8269 76.9182 53.9468 76.1007 53.9468Z" fill="white"/>
<path fill-rule="evenodd" clip-rule="evenodd" d="M73.0455 35.7939H68.0566C68.213 37.6068 68.9021 39.0078 70.146 40.0042C71.3825 41.0005 73.0595 41.5025 75.1769 41.5025C77.4722 41.5025 79.2414 41.0005 80.4712 40.0042C81.7004 39.0078 82.3186 37.5844 82.3186 35.7265C82.3186 34.8724 82.1549 34.1232 81.828 33.4865C81.5012 32.8572 80.9899 32.2953 80.2794 31.8008C79.7106 31.3963 78.4955 30.9468 76.6407 30.4524C76.5304 30.4243 76.4268 30.3978 76.3312 30.3732L76.3261 30.3719L76.3261 30.3719L76.326 30.3718L76.326 30.3718L76.3259 30.3718L76.3258 30.3718C76.0664 30.3053 75.8617 30.2528 75.717 30.2201C75.6782 30.2065 75.6294 30.1929 75.5679 30.176L75.5435 30.1692C75.5101 30.1599 75.473 30.1495 75.4329 30.1377C74.0327 29.7631 73.3362 29.2987 73.3362 28.7443C73.3362 28.3547 73.4712 28.0625 73.7346 27.8753C74.0046 27.688 74.4096 27.5906 74.9564 27.5906C75.582 27.5906 76.0579 27.7104 76.3994 27.9577C76.7263 28.1974 76.9395 28.572 77.0177 29.0664H81.8708C81.7218 27.3658 81.0534 26.0623 79.881 25.1483C78.7087 24.2343 77.0959 23.7773 75.0419 23.7773C72.9599 23.7773 71.3257 24.2568 70.132 25.2082C68.9449 26.1597 68.3481 27.4707 68.3481 29.1413C68.3481 29.9654 68.4971 30.7071 68.8032 31.3514C69.1154 32.0031 69.5772 32.5575 70.1888 33.022C70.5083 33.2467 71.0129 33.4939 71.7094 33.7562C72.4058 34.0184 73.3362 34.3106 74.5159 34.6327C74.5837 34.6497 74.6656 34.6712 74.7623 34.6966L74.7627 34.6967L74.7933 34.7048L74.8284 34.714C74.9304 34.7409 75.0464 34.7715 75.1769 34.805C76.6126 35.1871 77.3298 35.674 77.3298 36.2809C77.3298 36.6629 77.1594 36.9626 76.8111 37.1798C76.4776 37.3971 76.0011 37.502 75.4042 37.502C74.6937 37.502 74.1536 37.3671 73.7914 37.1049C73.4291 36.8427 73.1872 36.4007 73.0455 35.7939ZM112.105 24.2268H106.982V35.0072C106.982 37.1124 107.636 38.7156 108.929 39.8319C110.23 40.9406 112.105 41.5025 114.571 41.5025C117.016 41.5025 118.885 40.9406 120.171 39.8319C121.464 38.7231 122.104 37.1199 122.104 35.0072V24.2268H116.98V34.5877C116.98 35.5616 116.795 36.2509 116.426 36.6479C116.056 37.045 115.431 37.2472 114.571 37.2472C113.683 37.2472 113.05 37.045 112.674 36.6329C112.29 36.2284 112.105 35.5466 112.105 34.5877V24.2268ZM125.593 41.0305L131.199 24.2268H136.386L142 41.0305H136.92L136.323 38.813H131.242L130.631 41.0305H125.593ZM99.5743 24.1894H88.6556C87.2567 24.1894 86.1097 25.3617 86.1097 26.8001V38.4582C86.1097 39.8966 87.2567 41.0761 88.6556 41.0761H97.0071V36.8544H96.9302C96.8888 36.8616 96.8393 36.8616 96.7979 36.8616H91.5029C90.7891 36.8616 90.2089 36.2647 90.2089 35.5311V29.7344C90.2089 29.0008 90.7891 28.3967 91.5029 28.3967H96.7277C97.4408 28.3967 98.0217 29.0008 98.0217 29.7344V35.603C98.0217 35.6462 98.0217 35.6965 98.0143 35.7397V35.8475H102.12V26.8001C102.12 25.3617 100.973 24.1894 99.5743 24.1894ZM135.392 35.2844H132.18L133.8 29.4635L135.392 35.2844Z" fill="white"/>
<path fill-rule="evenodd" clip-rule="evenodd" d="M0.0476913 0.953125H61.2697C61.296 0.953125 61.3174 0.975079 61.3174 1.00216V63.951C61.3174 63.9781 61.296 64.0001 61.2697 64.0001H0.0476913C0.0213521 64.0001 0 63.9781 0 63.951V1.00216C0 0.975079 0.0213521 0.953125 0.0476913 0.953125ZM35.476 53.4922L37.3872 40.7329C35.3321 41.7791 33.0099 42.3729 30.5575 42.3729C22.1454 42.3729 15.3294 35.4525 15.3294 26.9133C15.3294 23.1103 16.6857 19.6254 18.9326 16.9321C20.4534 15.0872 22.3989 13.6169 24.6115 12.6838C26.4405 11.8921 28.4476 11.4609 30.5575 11.4609C38.9696 11.4609 45.9706 18.3813 45.9706 26.9133C46.1682 28.4632 44.6532 39.5025 43.4471 48.2909C43.1899 50.165 42.9467 51.9367 42.7373 53.4922H35.476ZM32.6742 19.7385C32.0029 19.5335 31.2973 19.4275 30.5575 19.4275C26.4816 19.4275 23.1798 22.7781 23.1798 26.9133C23.1798 30.7659 26.0363 33.9327 29.7149 34.3568H29.7218H29.7355L29.8656 34.371H29.8793L29.8862 34.378H29.8999H29.9136H29.9273H29.941H29.9547L30.0163 34.3851H30.03H30.0437H30.0574L30.1259 34.3922H30.1396H30.1465H30.1602L30.2013 34.3992H30.215H30.2287L30.3588 34.4063H30.3657H30.3725H30.3862H30.5575C34.6334 34.4063 37.9421 31.0486 37.9421 26.9133C37.9421 26.8859 37.9405 26.8585 37.9388 26.8302C37.937 26.8002 37.9352 26.7694 37.9352 26.7366V26.673L37.9284 26.5599V26.4892L37.9215 26.3761L37.9147 26.3196L37.901 26.1782V26.1428C37.8941 26.0792 37.8873 26.0227 37.8804 25.9661L37.8736 25.9378L37.853 25.7894L37.8462 25.7399L37.8256 25.6198L37.8188 25.5632L37.7982 25.443L37.7845 25.3865L37.7571 25.2522L37.7503 25.2239L37.7434 25.2027C37.7366 25.1532 37.7229 25.1037 37.7092 25.0542L37.6955 25.0118L37.6681 24.8987L37.6475 24.821L37.6201 24.7291L37.5996 24.6655L37.5653 24.5453L37.5448 24.5029C37.5379 24.4781 37.5293 24.4534 37.5208 24.4287C37.5122 24.4039 37.5037 24.3792 37.4968 24.3544L37.49 24.3403L37.4763 24.3049L37.4352 24.1918L37.4078 24.1282L37.3735 24.0363L37.3461 23.9656L37.305 23.8808L37.2776 23.8101L37.2365 23.7253L37.2091 23.6688V23.6617C37.1885 23.6193 37.168 23.5769 37.1474 23.5274H37.1406L37.0995 23.4355L37.0652 23.386L37.0241 23.3012L36.9899 23.2376L36.9419 23.1527L36.9077 23.0962L36.8597 23.0184V23.0114L36.7844 22.8841L36.7296 22.8064L36.6953 22.7498L36.6337 22.665L36.6131 22.6296L36.5446 22.5377L36.5241 22.5024C36.4145 22.3539 36.3049 22.2126 36.1884 22.0783L36.1679 22.05L36.0994 21.9652L36.0651 21.9298L35.9897 21.845L35.9761 21.8309L35.9696 21.8237C35.8761 21.7204 35.7888 21.6238 35.6883 21.534L35.6746 21.5198L35.5856 21.4279L35.5719 21.4138C35.3595 21.2229 35.1403 21.0321 34.9074 20.8624L34.8937 20.8554C34.7019 20.714 34.5032 20.5797 34.2977 20.4524H34.2909C33.7908 20.1555 33.2496 19.9152 32.6811 19.7385H32.6742Z" fill="white"/>
</svg>
