<svg width="33" height="32" viewBox="0 0 33 32" fill="none" xmlns="http://www.w3.org/2000/svg">
<path d="M26 13.75V28.125C26 28.5354 25.9192 28.9417 25.7621 29.3209C25.6051 29.7 25.3749 30.0445 25.0847 30.3347C24.7945 30.6249 24.45 30.8551 24.0709 31.0121C23.6917 31.1692 23.2854 31.25 22.875 31.25H4.125C3.2962 31.25 2.50134 30.9208 1.91529 30.3347C1.32924 29.7487 1 28.9538 1 28.125V9.375C1 8.5462 1.32924 7.75134 1.91529 7.16529C2.50134 6.57924 3.2962 6.25 4.125 6.25H17.2094" stroke="black" stroke-linecap="round" stroke-linejoin="round"/>
<path d="M31.9331 0.410179C31.8189 0.284743 31.6805 0.183754 31.5263 0.113316C31.372 0.0428784 31.205 0.00445403 31.0354 0.000364755C30.8659 -0.00372452 30.6972 0.0266062 30.5397 0.0895244C30.3822 0.152443 30.2391 0.246642 30.119 0.366429L29.1526 1.32815C29.0355 1.44535 28.9697 1.60426 28.9697 1.76994C28.9697 1.93563 29.0355 2.09454 29.1526 2.21174L30.0386 3.09612C30.0967 3.15446 30.1657 3.20076 30.2417 3.23235C30.3177 3.26394 30.3992 3.2802 30.4815 3.2802C30.5639 3.2802 30.6454 3.26394 30.7214 3.23235C30.7974 3.20076 30.8664 3.15446 30.9245 3.09612L31.8667 2.15862C32.3433 1.68284 32.3878 0.907835 31.9331 0.410179Z" fill="black"/>
<path d="M27.1985 3.28141L13.0954 17.3595C13.0099 17.4447 12.9477 17.5504 12.9149 17.6666L12.2626 19.6095C12.247 19.6623 12.2459 19.7182 12.2594 19.7715C12.2729 19.8248 12.3006 19.8735 12.3395 19.9124C12.3784 19.9512 12.427 19.9789 12.4803 19.9924C12.5336 20.006 12.5896 20.0049 12.6423 19.9892L14.5837 19.3369C14.6998 19.3041 14.8056 19.2419 14.8907 19.1564L28.9688 5.05173C29.0991 4.92009 29.1721 4.74238 29.1721 4.55719C29.1721 4.37201 29.0991 4.1943 28.9688 4.06266L28.1915 3.28141C28.0597 3.14998 27.8812 3.07617 27.695 3.07617C27.5089 3.07617 27.3303 3.14998 27.1985 3.28141Z" fill="black"/>
</svg>
