<svg width="37" height="39" viewBox="0 0 37 39" fill="none" xmlns="http://www.w3.org/2000/svg">
<g filter="url(#filter0_d_311_383)">
<path d="M10.7623 37.2192C9.97294 37.2192 9.31197 36.9457 8.77944 36.3985C8.2469 35.8514 7.98064 35.1778 7.98064 34.3778C7.98064 33.5779 8.25029 32.9079 8.78959 32.3678C9.32885 31.8277 9.99295 31.5577 10.7819 31.5577C11.5708 31.5577 12.2384 31.8313 12.7845 32.3784C13.3307 32.9256 13.6037 33.5991 13.6037 34.3991C13.6037 35.1991 13.3302 35.8691 12.783 36.4091C12.2359 36.9492 11.5623 37.2192 10.7623 37.2192ZM29.5316 37.2192C28.7422 37.2192 28.0812 36.9457 27.5487 36.3985C27.0162 35.8514 26.7499 35.1778 26.7499 34.3778C26.7499 33.5779 27.0195 32.9079 27.5588 32.3678C28.0981 31.8277 28.7622 31.5577 29.5511 31.5577C30.34 31.5577 31.0076 31.8313 31.5537 32.3784C32.0999 32.9256 32.373 33.5991 32.373 34.3991C32.373 35.1991 32.0994 35.8691 31.5522 36.4091C31.0051 36.9492 30.3316 37.2192 29.5316 37.2192ZM7.51914 5.52695L13.173 17.3884H26.6114C26.8422 17.3884 27.0537 17.3308 27.246 17.2154C27.4383 17.1 27.5858 16.9397 27.6883 16.7346L33.2845 6.60385C33.4384 6.32178 33.4512 6.07178 33.323 5.85385C33.1948 5.63592 32.9768 5.52695 32.6691 5.52695H7.51914ZM6.71144 3.98845H32.7392C33.6082 3.98845 34.2618 4.34487 34.7001 5.0577C35.1384 5.7705 35.1576 6.50255 34.7576 7.25385L29.2137 17.376C28.9148 17.8484 28.5367 18.225 28.0796 18.5058C27.6225 18.7866 27.1383 18.927 26.627 18.927H12.1999L9.47679 23.9347C9.29732 24.2423 9.29732 24.5756 9.47679 24.9346C9.65629 25.2936 9.93834 25.4731 10.3229 25.4731H32.373V27.0116H10.5422C9.42425 27.0116 8.61464 26.609 8.11334 25.8039C7.61207 24.9987 7.61399 24.1282 8.11909 23.1923L11.3576 17.3693L3.83449 1.53845H0.242188V0H4.82294L6.71144 3.98845Z" fill="#F4D877"/>
</g>
<defs>
<filter id="filter0_d_311_383" x="0.242188" y="0" width="35.8018" height="38.2197" filterUnits="userSpaceOnUse" color-interpolation-filters="sRGB">
<feFlood flood-opacity="0" result="BackgroundImageFix"/>
<feColorMatrix in="SourceAlpha" type="matrix" values="0 0 0 0 0 0 0 0 0 0 0 0 0 0 0 0 0 0 127 0" result="hardAlpha"/>
<feOffset dx="1" dy="1"/>
<feComposite in2="hardAlpha" operator="out"/>
<feColorMatrix type="matrix" values="0 0 0 0 0.964706 0 0 0 0 0.960784 0 0 0 0 0.301961 0 0 0 0.4 0"/>
<feBlend mode="normal" in2="BackgroundImageFix" result="effect1_dropShadow_311_383"/>
<feBlend mode="normal" in="SourceGraphic" in2="effect1_dropShadow_311_383" result="shape"/>
</filter>
</defs>
</svg>
